<?xml version="1.0" encoding="UTF-8"?>
<svg id="Layer_1" data-name="Layer 1" xmlns="http://www.w3.org/2000/svg" viewBox="0 0 176.21 271.92">
  <defs>
    <style>
      .cls-1 {
        fill: #1ab518;
      }
    </style>
  </defs>
  <path class="cls-1" d="m176.1,48.19c-.73-2.2-3.47-1.05-5.33-1.17-2.66-.16-5.33.03-8-.04-1.99-.05-3.52.69-4.81,2.16-8.53,9.78-16.91,19.7-25.7,29.24-4.49,4.86-8.25,10.5-14.56,15.37.8-3.66,1.29-6.07,1.86-8.47,6.37-26.48,12.74-52.96,19.17-79.42.94-3.85.46-6.03-4.28-5.85-6.66.25-13.33.17-19.99,0-3.54-.09-5.45,1.02-6.25,4.76-1.35,6.32-3.1,12.58-4.99,18.77-2.33,7.67-11.87,11.97-19.25,8.98-17.5-7.08-34.42-6.34-50.45,4.14-2.21,1.44-3.96,1.79-6.4.62-1.95-.94-3.93-1.8-5.95-2.56-3.49-1.44-8.68-3.28-13.94-4.05-.98,3.49-2.55,10.89.45,18.87,0,0,.02,0,.02,0,2.16,6.27,6.21,12.14,11.12,14.99,3.21,1.87,5.67,4.02,6.43,7.75,1.31,6.5,5.69,9.71,11.72,11.58,2.73.85,5.81.16,8.63,2.09-6.7,0-13.17,1.04-18.99-2.25-2.79-1.58-4.05-.74-5.48,1.74-4.41,7.63-9.24,15.03-13.48,22.75-6.98,12.7-9.66,26.39-6.07,40.5,4.28,16.84,14.24,29.08,31.56,34.26,3.07.92,3.98.24,3.23-3.03-1.23-5.32-2.65-10.65-2.26-16.38,1.51,4.52,2.65,9.04,4.49,13.25,4.19,9.55,10.99,10.32,17.36,2.06,2.15-2.78,3.9-5.88,6.39-9.68q-2.78,11.59,3.74,10.65c-1.87,7.74-3.7,15.29-5.65,23.36-4.04-4.16-4.69-8.47-4.48-13.1.08-1.66-.01-4.16-2.54-2.01-5.18,4.38-9.65,3.55-14.4-2.53-.38,2.39-.61,3.18-.62,3.98-.25,12.14,5.21,21.48,14.61,28.58,1.83,1.38,2.67,2.65,2.74,4.29l-6.98,28.16c-2.04,4.09-4.63,4.64-8.8,7.62-2.28,1.62-4.38,3.55-5.88,5.99-.96,1.57-1.61,3.31-1.46,5.2.1,1.23.66,2.3,2.02,2.5,1.13.17,1.81-.51,2.26-1.53,3.05-8.47,10.07-10.62,17.35-11.9h23.54l1.24-5.11c1.73-3.83,6.01-4.81,9.16-7.02,8.13-5.7,9.48-15.86,2.55-22.8-2.71-2.72-3.19-5.19-2.36-8.7l.31-1.26c5.8-23.48,11.72-46.95,16.98-70.55,2.68-12.02,6.61-22.59,15.54-31.92,17.94-18.73,34.63-38.65,51.83-58.09,1.3-1.47,3.68-2.93,3.06-4.81Zm-100.32-.57c5.55.02,9.48,3.82,9.56,9.24.08,5.18-4.66,10.09-9.7,10.04-4.84-.05-9.52-4.79-9.55-9.66-.04-5.71,3.91-9.63,9.69-9.61Zm-31.16,18.39c-5.42-.08-9.47-4.15-9.48-9.5,0-4.93,5.11-9.89,10.1-9.78,5.26.11,9.18,4.3,9.18,9.8,0,5.77-3.93,9.57-9.8,9.48Zm10.82,34.63c-4.93.87-9.68,2.11-14.32,3.98-4.48,1.81-8.5,4.41-12.8,6.47,9.69-8.68,20.87-14.42,33.85-15.15,8.25-.47,17.62,2.75,17.34,15.66-.14,6.55-1.49,12.69-4.05,18.67-.25-4.23.8-8.36.67-12.59-.4-13.44-7.57-19.36-20.69-17.04Z"/>
</svg>